<?xml version="1.0" encoding="UTF-8" standalone="no"?>
<!-- Created with Inkscape (http://www.inkscape.org/) -->

<svg
   xmlns:dc="http://purl.org/dc/elements/1.1/"
   xmlns:cc="http://creativecommons.org/ns#"
   xmlns:rdf="http://www.w3.org/1999/02/22-rdf-syntax-ns#"
   xmlns:svg="http://www.w3.org/2000/svg"
   xmlns="http://www.w3.org/2000/svg"
   xmlns:sodipodi="http://sodipodi.sourceforge.net/DTD/sodipodi-0.dtd"
   xmlns:inkscape="http://www.inkscape.org/namespaces/inkscape"
   id="svg2"
   version="1.1"
   inkscape:version="0.91 r13725"
   xml:space="preserve"
   width="575"
   height="575"
   viewBox="0 0 575 575"
   sodipodi:docname="FabLab.svg"><metadata
     id="metadata8"><rdf:RDF><cc:Work
         rdf:about=""><dc:format>image/svg+xml</dc:format><dc:type
           rdf:resource="http://purl.org/dc/dcmitype/StillImage" /><dc:title></dc:title></cc:Work></rdf:RDF></metadata><defs
     id="defs6" /><sodipodi:namedview
     pagecolor="#ffffff"
     bordercolor="#666666"
     borderopacity="1"
     objecttolerance="10"
     gridtolerance="10"
     guidetolerance="10"
     inkscape:pageopacity="0"
     inkscape:pageshadow="2"
     inkscape:window-width="732"
     inkscape:window-height="480"
     id="namedview4"
     showgrid="false"
     inkscape:zoom="0.41043478"
     inkscape:cx="287.5"
     inkscape:cy="287.5"
     inkscape:window-x="0"
     inkscape:window-y="25"
     inkscape:window-maximized="0"
     inkscape:current-layer="g12" /><g
     id="g10"
     inkscape:groupmode="layer"
     inkscape:label="ink_ext_XXXXXX"
     transform="matrix(1.25,0,0,-1.25,0,575)"><g
       id="g12"
       transform="scale(0.1,0.1)"><path
         d="m 1891.67,988.332 0,403.868 c 14.5,5.53 28.63,12.16 42.22,20.16 192.55,113.53 212.79,436.03 45.17,720.29 -167.6,284.26 -459.56,422.67 -652.11,309.15 -192.55,-113.53 -212.78,-436.02 -45.19,-720.29 27.04,-45.85 57.34,-87.84 89.91,-125.65 l 0,-300.03 -414.998,237.5 0,1487.5 -145.473,96.03 C 678.691,2875.42 603.328,2598.17 603.328,2303.33 c 0,-916.1 726.912,-1661.932 1635.682,-1692.029 l 0.16,174.531 -347.5,202.5"
         style="fill:#2c9d40;fill-opacity:1;fill-rule:nonzero;stroke:none"
         id="path14"
         inkscape:connector-curvature="0" /><path
         d="m 1409.68,3351.99 253.65,-150.32 c -5,-41.68 -5.16,-87.57 -5,-103.34 2.32,-223.51 305.02,-393.42 635,-390 329.98,3.42 565,203.33 563.34,400 -1.88,223.51 -216.82,398.5 -546.67,408.33 -111.67,3.33 -219.32,-18.96 -268.33,-28.33 l -185,118.33 440,251.05 1297.08,-753.96 148.75,81.65 c -143.12,235.31 -345.79,438.95 -601.31,586.06 -793.92,457.09 -1802.98,199.26 -2282.491,-573.3 l 147.551,-93.16 403.43,246.99"
         style="fill:#cd1e25;fill-opacity:1;fill-rule:nonzero;stroke:none"
         id="path16"
         inkscape:connector-curvature="0" /><path
         d="m 3637.5,2532.5 -275.82,-144.18 c -10,1.67 -71.22,58.98 -85,66.67 -195.26,108.78 -482.73,-35.05 -643.34,-323.33 -160.61,-288.26 -146.91,-617.86 48.34,-726.67 195.27,-108.77 486.03,21.74 646.66,310 25.9,46.5 60.5,154.46 76.67,201.67 L 3640,2052.5 3638.61,1536.72 2345,781.25 l 0.63,-170.219 c 275.31,7.629 552.63,82.707 807.07,231.68 790.53,462.919 1066.82,1467.079 633.6,2266.499 l -148.8,-81.71 0,-495"
         style="fill:#36409e;fill-opacity:1;fill-rule:nonzero;stroke:none"
         id="path18"
         inkscape:connector-curvature="0" /><path
         d="M 270,360 0,360"
         style="fill:none;stroke:#100f0d;stroke-width:5;stroke-linecap:butt;stroke-linejoin:miter;stroke-miterlimit:4;stroke-dasharray:none;stroke-opacity:1"
         id="path20"
         inkscape:connector-curvature="0" /><path
         d="M 360,270 360,0"
         style="fill:none;stroke:#100f0d;stroke-width:5;stroke-linecap:butt;stroke-linejoin:miter;stroke-miterlimit:4;stroke-dasharray:none;stroke-opacity:1"
         id="path22"
         inkscape:connector-curvature="0" /><path
         d="M 270,4240 0,4240"
         style="fill:none;stroke:#100f0d;stroke-width:5;stroke-linecap:butt;stroke-linejoin:miter;stroke-miterlimit:4;stroke-dasharray:none;stroke-opacity:1"
         id="path24"
         inkscape:connector-curvature="0" /><path
         d="m 360,4330 0,270"
         style="fill:none;stroke:#100f0d;stroke-width:5;stroke-linecap:butt;stroke-linejoin:miter;stroke-miterlimit:4;stroke-dasharray:none;stroke-opacity:1"
         id="path26"
         inkscape:connector-curvature="0" /><path
         d="m 4330,4240 270,0"
         style="fill:none;stroke:#100f0d;stroke-width:5;stroke-linecap:butt;stroke-linejoin:miter;stroke-miterlimit:4;stroke-dasharray:none;stroke-opacity:1"
         id="path28"
         inkscape:connector-curvature="0" /><path
         d="m 4240,4330 0,270"
         style="fill:none;stroke:#100f0d;stroke-width:5;stroke-linecap:butt;stroke-linejoin:miter;stroke-miterlimit:4;stroke-dasharray:none;stroke-opacity:1"
         id="path30"
         inkscape:connector-curvature="0" /><path
         d="m 4330,360 270,0"
         style="fill:none;stroke:#100f0d;stroke-width:5;stroke-linecap:butt;stroke-linejoin:miter;stroke-miterlimit:4;stroke-dasharray:none;stroke-opacity:1"
         id="path32"
         inkscape:connector-curvature="0" /><path
         d="M 4240,270 4240,0"
         style="fill:none;stroke:#100f0d;stroke-width:5;stroke-linecap:butt;stroke-linejoin:miter;stroke-miterlimit:4;stroke-dasharray:none;stroke-opacity:1"
         id="path34"
         inkscape:connector-curvature="0" /></g></g></svg>